<svg width="48" height="48" viewBox="0 0 48 48" fill="none" xmlns="http://www.w3.org/2000/svg">
<path d="M3 16H20" stroke="#264C51" stroke-width="2" stroke-miterlimit="10"/>
<path d="M28 16H45" stroke="#264C51" stroke-width="2" stroke-miterlimit="10"/>
<path d="M45 19C46.6569 19 48 17.6569 48 16C48 14.3431 46.6569 13 45 13C43.3431 13 42 14.3431 42 16C42 17.6569 43.3431 19 45 19Z" fill="#264C51"/>
<path d="M3 19C4.65685 19 6 17.6569 6 16C6 14.3431 4.65685 13 3 13C1.34315 13 0 14.3431 0 16C0 17.6569 1.34315 19 3 19Z" fill="#264C51"/>
<path d="M28 16C34 17.5 38.7 22.1 40.4 28" stroke="#264C51" stroke-width="2" stroke-miterlimit="10"/>
<path d="M7.6001 28C9.3001 22.1 14.0001 17.5 20.0001 16" stroke="#264C51" stroke-width="2" stroke-miterlimit="10"/>
<path d="M24 20C26.2091 20 28 18.2091 28 16C28 13.7909 26.2091 12 24 12C21.7909 12 20 13.7909 20 16C20 18.2091 21.7909 20 24 20Z" stroke="#264C51" stroke-width="2" stroke-miterlimit="10"/>
<path d="M7 36C9.20914 36 11 34.2091 11 32C11 29.7909 9.20914 28 7 28C4.79086 28 3 29.7909 3 32C3 34.2091 4.79086 36 7 36Z" stroke="#264C51" stroke-width="2" stroke-miterlimit="10"/>
<path d="M41 36C43.2091 36 45 34.2091 45 32C45 29.7909 43.2091 28 41 28C38.7909 28 37 29.7909 37 32C37 34.2091 38.7909 36 41 36Z" stroke="#264C51" stroke-width="2" stroke-miterlimit="10"/>
</svg>
