<svg width="48" height="48" viewBox="0 0 48 48" fill="none" xmlns="http://www.w3.org/2000/svg">
<g clip-path="url(#clip0)">
<path d="M30 47H18C15.8783 47 13.8434 46.1571 12.3431 44.6569C10.8429 43.1566 10 41.1217 10 39V13L24 1L38 13V39C38 41.1217 37.1571 43.1566 35.6569 44.6569C34.1566 46.1571 32.1217 47 30 47Z" stroke="#264C51" stroke-width="2" stroke-miterlimit="10"/>
<path d="M24 20C26.2091 20 28 18.2091 28 16C28 13.7909 26.2091 12 24 12C21.7909 12 20 13.7909 20 16C20 18.2091 21.7909 20 24 20Z" stroke="#264C51" stroke-width="2" stroke-miterlimit="10"/>
</g>
<defs>
<clipPath id="clip0">
<path d="M0 0H48V48H0V0Z" fill="white"/>
</clipPath>
</defs>
</svg>
