<svg width="48" height="48" viewBox="0 0 48 48" fill="none" xmlns="http://www.w3.org/2000/svg">
<g clip-path="url(#clip0)">
<path d="M11.45 28.06L21 11.54C22.2437 9.36933 23.904 7.46566 25.8853 5.93826C27.8667 4.41085 30.1302 3.28978 32.5459 2.63939C34.9617 1.989 37.4821 1.8221 39.9625 2.14825C42.4429 2.47441 44.8345 3.28721 47 4.54L42 12.5H34L40 16.66L37.4799 21C36.2364 23.1748 34.576 25.0829 32.594 26.6151C30.612 28.1474 28.3473 29.2736 25.9294 29.9294C23.5115 30.5852 20.9881 30.7576 18.5035 30.4368C16.0189 30.1161 13.622 29.3084 11.45 28.06V28.06Z" stroke="#264C51" stroke-width="2" stroke-miterlimit="10"/>
<path d="M11.45 28.06L1 46" stroke="#264C51" stroke-width="2" stroke-miterlimit="10"/>
</g>
<defs>
<clipPath id="clip0">
<path d="M0 0H48V48H0V0Z" fill="white"/>
</clipPath>
</defs>
</svg>
